<svg width="38" height="33" viewBox="0 0 38 33" fill="none" xmlns="http://www.w3.org/2000/svg">
<path d="M2.82582 17.188C2.29711 17.7166 2.00003 18.4335 1.99994 19.1811C1.99985 19.9287 2.29674 20.6458 2.82532 21.1745C3.3539 21.7032 4.07085 22.0003 4.81847 22.0004C5.56608 22.0005 6.28311 21.7036 6.81182 21.175L20.1578 7.82598C20.39 7.59448 20.5617 7.30945 20.6578 6.99599L21.9788 2.64398C22.0047 2.5575 22.0066 2.46564 21.9845 2.37813C21.9623 2.29063 21.9169 2.21076 21.853 2.14698C21.7891 2.08321 21.7092 2.03792 21.6217 2.01591C21.5341 1.9939 21.4423 1.996 21.3558 2.02198L17.0028 3.34198C16.6897 3.43723 16.4046 3.60789 16.1728 3.83899L2.82582 17.188Z" stroke="#5C497D" stroke-width="2" stroke-linecap="round" stroke-linejoin="round"/>
<path d="M32 1L1 32" stroke="#5C497D" stroke-width="2" stroke-linecap="round"/>
<path d="M13.02 32L20.32 25.18C20.6667 24.86 20.98 24.54 21.26 24.22C21.5533 23.8867 21.8 23.5467 22 23.2C22.2133 22.84 22.3467 22.4667 22.4 22.08C22.4533 21.7067 22.4133 21.3533 22.28 21.02C22.1467 20.6867 21.9267 20.4133 21.62 20.2C21.3267 19.9867 20.9467 19.88 20.48 19.88C19.92 19.8667 19.4333 20.0067 19.02 20.3C18.62 20.58 18.2867 20.9533 18.02 21.42C17.7667 21.8867 17.5867 22.3933 17.48 22.94L15.18 22.92C15.34 21.9733 15.6533 21.1133 16.12 20.34C16.6 19.5533 17.22 18.9267 17.98 18.46C18.7533 17.9933 19.6667 17.76 20.72 17.76C21.6533 17.76 22.44 17.9667 23.08 18.38C23.7333 18.78 24.2133 19.3067 24.52 19.96C24.8267 20.6 24.92 21.2667 24.8 21.96C24.7067 22.72 24.4267 23.44 23.96 24.12C23.5067 24.7867 22.98 25.38 22.38 25.9L17.92 29.78L23.78 29.8L23.44 32H13.02ZM28.4188 25C28.3788 25.44 28.3521 25.9 28.3388 26.38C28.3254 26.8467 28.3521 27.3 28.4188 27.74C28.4854 28.1667 28.5921 28.56 28.7388 28.92C28.8988 29.2667 29.1188 29.5467 29.3988 29.76C29.6921 29.9733 30.0588 30.08 30.4988 30.08C31.0454 30.0933 31.5388 29.96 31.9788 29.68C32.4321 29.3867 32.8254 28.9933 33.1588 28.5C33.5054 28.0067 33.7854 27.46 33.9988 26.86C34.2254 26.2467 34.3788 25.6267 34.4588 25C34.4988 24.5467 34.5254 24.0867 34.5388 23.62C34.5521 23.1533 34.5254 22.7 34.4588 22.26C34.4054 21.82 34.2988 21.4267 34.1388 21.08C33.9788 20.72 33.7521 20.44 33.4588 20.24C33.1788 20.0267 32.8188 19.9133 32.3788 19.9C31.8321 19.9 31.3321 20.0467 30.8788 20.34C30.4388 20.62 30.0454 21.0067 29.6988 21.5C29.3654 21.9933 29.0921 22.5467 28.8788 23.16C28.6654 23.76 28.5121 24.3733 28.4188 25ZM26.1388 25C26.2588 24.0533 26.4988 23.1467 26.8588 22.28C27.2188 21.4133 27.6788 20.64 28.2388 19.96C28.7988 19.28 29.4454 18.7467 30.1788 18.36C30.9121 17.9733 31.7188 17.78 32.5988 17.78C33.3188 17.78 33.9321 17.92 34.4388 18.2C34.9588 18.4667 35.3854 18.84 35.7188 19.32C36.0654 19.7867 36.3254 20.3267 36.4988 20.94C36.6854 21.5533 36.7921 22.2133 36.8188 22.92C36.8588 23.6133 36.8321 24.3067 36.7388 25C36.6188 25.9467 36.3788 26.8533 36.0187 27.72C35.6588 28.5733 35.1988 29.34 34.6388 30.02C34.0921 30.7 33.4454 31.2333 32.6988 31.62C31.9654 32.0067 31.1588 32.2 30.2788 32.2C29.5721 32.2 28.9588 32.0667 28.4388 31.8C27.9321 31.52 27.5054 31.1467 27.1588 30.68C26.8121 30.2133 26.5521 29.6733 26.3788 29.06C26.2054 28.4333 26.0988 27.7733 26.0588 27.08C26.0321 26.3867 26.0588 25.6933 26.1388 25Z" fill="#5C497D"/>
</svg>
